<?xml version="1.0" encoding="UTF-8" standalone="no"?>
<!DOCTYPE svg PUBLIC "-//W3C//DTD SVG 1.1//EN" "http://www.w3.org/Graphics/SVG/1.1/DTD/svg11.dtd">
<svg version="1.1" xmlns="http://www.w3.org/2000/svg" xmlns:xlink="http://www.w3.org/1999/xlink" preserveAspectRatio="xMidYMid meet" viewBox="0 0 640 400" width="640" height="400"><defs><path d="M205.33 311.58C205.33 331.44 210.29 349.71 218.63 365.99C217.75 366.8 213.31 370.84 205.33 378.11C188.05 362.38 178.45 353.64 176.53 351.89C74.26 259.15 6.74 197.79 6.74 122.92C6.74 61.56 54.8 13.7 115.96 13.7C150.52 13.7 183.68 29.78 205.33 55C226.98 29.78 260.14 13.7 294.69 13.7C355.86 13.7 403.92 61.56 403.92 122.92C403.92 151.32 393.99 177.73 376.51 204.54C360.82 196.99 343.15 192.43 324.48 192.43C258.75 192.43 205.33 245.85 205.33 311.58M304.62 232.14L304.62 291.72L245.05 291.72L245.05 331.44L304.62 331.44L304.62 391.01L344.34 391.01L344.34 331.44L403.92 331.44L403.92 291.72L344.34 291.72L344.34 232.14L304.62 232.14Z" id="cmzoyxXV4"></path><path d="M153.25 8.15C153.25 8.15 153.25 8.15 153.25 8.15C153.25 38.34 153.25 55.11 153.25 58.46C153.25 58.46 153.25 58.46 153.25 58.46C123.07 58.46 106.3 58.46 102.95 58.46C102.95 58.46 102.95 58.46 102.95 58.46C102.95 28.28 102.95 11.51 102.95 8.15C102.95 8.15 102.95 8.15 102.95 8.15C133.13 8.15 149.9 8.15 153.25 8.15Z" id="c1biGhVpyK"></path><path d="M522.98 189.8L508.31 175.23L522.98 160.56L537.55 175.23L552.12 160.56L537.55 145.99L552.12 131.41L566.8 145.99L581.37 131.41L552.12 102.17L479.06 175.23L508.31 204.48L522.98 189.8M471.83 197.14L449.92 175.23L552.12 72.92L574.13 94.94L588.6 80.26L574.13 65.59L588.6 51.02L632.52 94.94L617.95 109.4L603.27 94.94L588.6 109.4L610.61 131.41L508.31 233.62L486.4 211.71L439.59 258.62L439.59 229.28L471.83 197.14Z" id="fhDd1eN2M"></path><path d="M645 -12C645 -12 645 -12 645 -12C645 18.18 645 34.95 645 38.31C645 38.31 645 38.31 645 38.31C614.82 38.31 598.05 38.31 594.7 38.31C594.7 38.31 594.7 38.31 594.7 38.31C594.7 8.12 594.7 -8.65 594.7 -12C594.7 -12 594.7 -12 594.7 -12C624.88 -12 641.65 -12 645 -12Z" id="kFoZKIPFr"></path></defs><g><g><g><use xlink:href="#cmzoyxXV4" opacity="1" fill="#db1d4f" fill-opacity="1"></use><g><use xlink:href="#cmzoyxXV4" opacity="1" fill-opacity="0" stroke="#000000" stroke-width="1" stroke-opacity="0"></use></g></g><g><use xlink:href="#c1biGhVpyK" opacity="1" fill="#000000" fill-opacity="0"></use><g><use xlink:href="#c1biGhVpyK" opacity="1" fill-opacity="0" stroke="#000000" stroke-width="1" stroke-opacity="0"></use></g></g><g><use xlink:href="#fhDd1eN2M" opacity="1" fill="#a8d1ff" fill-opacity="1"></use><g><use xlink:href="#fhDd1eN2M" opacity="1" fill-opacity="0" stroke="#000000" stroke-width="1" stroke-opacity="0"></use></g></g><g><use xlink:href="#kFoZKIPFr" opacity="1" fill="#000000" fill-opacity="0"></use><g><use xlink:href="#kFoZKIPFr" opacity="1" fill-opacity="0" stroke="#000000" stroke-width="1" stroke-opacity="0"></use></g></g></g></g></svg>